<?xml version="1.0" standalone="no"?>
<!DOCTYPE svg PUBLIC "-//W3C//DTD SVG 20010904//EN"
 "http://www.w3.org/TR/2001/REC-SVG-20010904/DTD/svg10.dtd">
<svg version="1.0" xmlns="http://www.w3.org/2000/svg"
 width="700.000000pt" height="700.000000pt" viewBox="0 0 700.000000 700.000000"
 preserveAspectRatio="xMidYMid meet">
<metadata>
Created by potrace 1.11, written by Peter Selinger 2001-2013
</metadata>
<g transform="translate(0.000000,700.000000) scale(0.100000,-0.100000)"
fill="#000000" stroke="none">
<path d="M2745 6993 c-321 -42 -608 -223 -776 -488 l-39 -63 -38 9 c-20 5 -86
12 -147 15 -403 22 -788 -198 -981 -560 -94 -178 -129 -329 -122 -536 9 -252
81 -440 244 -640 l63 -78 3 -1939 3 -1938 27 -96 c79 -287 281 -515 552 -620
155 -60 134 -59 1440 -59 1281 1 1262 0 1414 53 128 45 218 103 327 212 105
105 145 163 200 292 65 152 67 173 72 745 l5 516 66 12 c215 37 445 134 637
268 44 31 134 110 200 176 259 260 408 562 456 923 19 147 7 391 -26 537 -108
478 -399 851 -853 1091 -1 1 7 37 18 81 24 92 28 241 10 331 -37 176 -139 338
-280 443 -42 31 -90 62 -107 69 -27 11 -32 20 -43 73 -41 213 -149 408 -308
560 -139 132 -282 213 -468 265 -89 25 -115 28 -259 28 -155 0 -244 -12 -331
-45 -25 -10 -31 -7 -90 54 -111 115 -265 210 -421 262 -133 43 -324 63 -448
47z m313 -234 c200 -46 378 -168 507 -347 21 -29 43 -51 49 -49 214 88 265
100 421 100 146 -1 240 -23 370 -87 165 -82 301 -218 380 -381 50 -102 70
-172 86 -297 l12 -87 36 -12 c131 -42 268 -156 323 -269 104 -215 66 -444
-102 -612 -224 -224 -586 -203 -781 46 -34 42 -49 54 -64 51 -108 -27 -176
-36 -265 -36 -168 0 -296 35 -449 126 -43 25 -81 45 -84 45 -3 0 -25 -37 -49
-82 -129 -248 -382 -358 -641 -278 -133 41 -236 132 -321 284 l-49 87 -106
-109 c-58 -60 -127 -124 -154 -141 -72 -48 -183 -98 -272 -122 -104 -28 -297
-31 -399 -6 -306 76 -548 312 -626 612 -112 428 129 873 549 1015 96 32 156
41 276 41 103 0 174 -13 321 -56 18 -6 26 6 67 89 183 380 565 567 965 475z
m707 -2167 c102 -28 322 -41 411 -25 l50 10 64 -54 c116 -96 299 -173 414
-173 23 0 47 -4 54 -8 10 -7 12 -358 10 -1783 -3 -1966 2 -1807 -67 -1954 -86
-182 -269 -328 -466 -370 -105 -22 -2425 -22 -2530 0 -233 49 -422 223 -503
460 l-27 80 -3 1853 c-1 1018 0 1852 3 1852 3 0 31 -13 63 -29 249 -124 584
-137 845 -32 92 36 195 95 263 149 l50 39 59 -54 c171 -156 380 -226 601 -201
187 20 379 123 484 260 l35 46 50 -21 c28 -11 91 -31 140 -45z m1786 -63 c175
-117 355 -323 454 -518 46 -93 91 -225 117 -344 28 -134 31 -376 5 -517 -84
-453 -391 -838 -816 -1021 -88 -38 -262 -89 -302 -89 -19 0 -19 27 -17 1171
l3 1170 66 28 c91 38 173 95 243 168 l59 62 47 -24 c26 -13 89 -52 141 -86z"/>
<path d="M1612 5929 c-117 -23 -242 -120 -295 -229 -27 -57 -51 -169 -38 -183
4 -4 52 -6 106 -5 l98 3 12 47 c21 84 77 138 162 156 l38 8 3 107 c3 121 9
115 -86 96z"/>
<path d="M1382 2663 l3 -1588 23 -45 c57 -108 152 -172 269 -178 163 -9 300
93 333 248 8 40 10 465 8 1600 l-3 1545 -105 0 -105 0 -5 -1555 c-4 -1233 -8
-1560 -18 -1577 -29 -52 -112 -60 -155 -15 l-27 28 -2 1560 -3 1559 -108 3
-107 3 2 -1588z"/>
<path d="M2227 4243 c-12 -12 -8 -3063 4 -3128 14 -76 37 -121 89 -172 60 -61
120 -87 210 -91 138 -7 249 61 308 186 l27 57 0 1575 0 1575 -107 3 -108 3 0
-1544 c0 -1075 -3 -1553 -11 -1575 -14 -40 -49 -62 -97 -62 -47 0 -86 34 -96
81 -3 18 -6 722 -6 1565 l0 1534 -103 0 c-57 0 -107 -3 -110 -7z"/>
<path d="M3075 4238 c-3 -7 -4 -717 -3 -1578 l3 -1565 27 -57 c35 -76 104
-141 176 -168 76 -29 186 -25 254 8 66 33 133 104 160 171 l23 56 0 1570 0
1570 -107 3 -108 3 0 -1534 c0 -844 -3 -1548 -6 -1566 -10 -47 -49 -81 -96
-81 -41 0 -81 20 -95 48 -4 9 -10 717 -13 1572 l-5 1555 -103 3 c-77 2 -104
-1 -107 -10z"/>
<path d="M3927 4244 c-4 -4 -7 -705 -7 -1558 0 -1698 -3 -1610 60 -1701 64
-94 162 -140 283 -133 120 6 214 70 268 183 l29 60 0 1578 0 1578 -107 -3
-108 -3 -3 -1559 -2 -1560 -27 -28 c-43 -45 -126 -37 -155 15 -10 17 -14 344
-18 1577 l-5 1555 -101 3 c-55 1 -103 0 -107 -4z"/>
</g>
</svg>
